<svg xmlns="http://www.w3.org/2000/svg" viewBox="0 0 512 512">
  <defs>
    <linearGradient id="bg" x1="0%" y1="0%" x2="100%" y2="100%">
      <stop offset="0%" style="stop-color:#0a0a0a"/>
      <stop offset="100%" style="stop-color:#111111"/>
    </linearGradient>
    <linearGradient id="glow" x1="0%" y1="0%" x2="100%" y2="100%">
      <stop offset="0%" style="stop-color:#00ff87"/>
      <stop offset="100%" style="stop-color:#00e05a"/>
    </linearGradient>
  </defs>
  <rect width="512" height="512" rx="112" fill="url(#bg)"/>
  <!-- Clipboard body -->
  <rect x="136" y="152" width="240" height="256" rx="24" fill="none" stroke="#00ff87" stroke-width="6" opacity="0.3"/>
  <!-- Clipboard clip -->
  <rect x="196" y="128" width="120" height="48" rx="14" fill="none" stroke="#00ff87" stroke-width="6" opacity="0.4"/>
  <rect x="216" y="118" width="80" height="36" rx="10" fill="url(#glow)"/>
  <!-- Content lines -->
  <rect x="176" y="208" width="100" height="6" rx="3" fill="#00ff87" opacity="0.5"/>
  <rect x="176" y="230" width="160" height="6" rx="3" fill="#00ff87" opacity="0.3"/>
  <rect x="176" y="252" width="80" height="6" rx="3" fill="#00ff87" opacity="0.2"/>
  <!-- Infinity loop -->
  <g transform="translate(256, 336)" fill="none" stroke="#00ff87" stroke-width="6" stroke-linecap="round" opacity="0.8">
    <path d="M-36,0 C-36,-20 -20,-20 0,0 C20,20 36,20 36,0 C36,-20 20,-20 0,0 C-20,20 -36,20 -36,0 Z"/>
  </g>
</svg>
